# Blender v2.75 (sub 0) OBJ File: ''
# www.blender.org
mtllib miojo no copo.mtl
o Cylinder
v -0.000000 -1.000000 0.000000
v -0.000000 -1.000000 -0.895647
v 0.000000 1.000000 -1.000000
v 0.700245 -1.000000 -0.558427
v 0.781832 1.000000 -0.623490
v 0.873191 -1.000000 0.199300
v 0.974928 1.000000 0.222521
v 0.388606 -1.000000 0.806950
v 0.433884 1.000000 0.900969
v -0.388607 -1.000000 0.806950
v -0.433884 1.000000 0.900969
v -0.873191 -1.000000 0.199300
v -0.974928 1.000000 0.222521
v -0.700245 -1.000000 -0.558426
v -0.781832 1.000000 -0.623490
v 0.674347 1.000000 -0.537774
v 0.000000 1.000000 -0.862522
v 0.840897 1.000000 0.191929
v 0.374234 1.000000 0.777105
v -0.374234 1.000000 0.777105
v -0.840897 1.000000 0.191929
v -0.674347 1.000000 -0.537773
v 0.000000 0.576841 -0.862522
v 0.000000 0.576841 0.000000
v 0.674347 0.576841 -0.537774
v 0.840897 0.576841 0.191929
v 0.374234 0.576841 0.777105
v -0.374234 0.576841 0.777105
v -0.840897 0.576841 0.191929
v -0.674347 0.576841 -0.537773
v -0.250999 0.339396 -0.005803
v 0.124910 1.370128 -1.247617
v -0.161704 0.366550 -0.062924
v 0.023986 0.987827 -0.823336
v -0.042315 0.347592 0.049910
v 0.218964 1.362188 -1.191905
v -0.033919 0.371568 -0.028809
v 0.151772 0.992846 -0.789221
vt 0.612308 0.401981
vt 0.592335 0.401981
vt 0.599855 0.387120
vt 0.692756 0.425550
vt 0.692756 0.386324
vt 0.716045 0.386324
vt 0.716045 0.425550
vt 0.540386 0.379685
vt 0.529980 1.003720
vt 0.261397 0.999697
vt 0.257375 0.376383
vt 0.616753 0.383450
vt 0.659347 0.389971
vt 0.659145 0.413806
vt 0.643432 0.413806
vt 0.643634 0.389971
vt -0.000948 1.001140
vt -0.000436 0.376810
vt 0.630303 0.393734
vt 0.610434 0.436375
vt 0.610760 0.424378
vt 0.622177 0.424202
vt 0.621851 0.436200
vt 0.848021 0.372845
vt 0.833746 0.995718
vt 0.682429 0.997156
vt 0.687692 0.380333
vt 0.630303 0.410228
vt 0.692090 0.410794
vt 0.668804 0.411152
vt 0.669469 0.386682
vt 0.531139 0.993944
vt 0.539788 0.374356
vt 0.616753 0.420513
vt 0.659347 0.437641
vt 0.643634 0.437641
vt 0.530558 0.375419
vt 0.530411 1.000509
vt 0.268941 1.001343
vt 0.252707 0.376591
vt 0.599855 0.416842
vt 0.610434 0.405148
vt 0.621851 0.404973
vt -0.001112 1.000282
vt -0.000847 0.377137
vt 0.692756 0.450015
vt 0.669469 0.450373
vt 0.814146 0.386151
vt 0.832625 0.997974
vt 0.546550 0.994203
vt 0.560566 0.379026
vt 0.646139 0.386681
vt 0.617315 0.392942
vt 0.613930 0.388901
vt 0.647348 0.381642
vt 0.604488 0.418292
vt 0.599057 0.418292
vt 0.617315 0.443643
vt 0.613930 0.447684
vt 0.646139 0.449904
vt 0.647348 0.454943
vt 0.669254 0.432361
vt 0.674147 0.434603
vt 0.669254 0.404224
vt 0.674147 0.401982
vt 0.196843 0.181988
vt 0.005660 0.181988
vt 0.077642 0.039734
vt 0.077642 0.324241
vt 0.239385 0.359375
vt 0.369093 0.260933
vt 0.369093 0.103043
vt 0.239385 0.004601
vt 0.960382 0.001310
vt 0.973184 0.056601
vt 0.973184 0.292560
vt 0.960382 0.237269
vt 0.328170 0.504536
vt 0.302612 0.503215
vt 0.307591 0.359125
vt 0.333149 0.360445
vt 0.964939 0.106563
vt 0.972905 0.073166
vt 0.972905 0.216784
vt 0.964939 0.250180
vt 0.979583 0.364635
vt 0.917245 0.365241
vt 0.919836 0.014053
vt 0.982174 0.013448
vt 0.333149 0.391967
vt 0.338128 0.360445
vt 0.363687 0.359125
vt 0.358708 0.390646
vt 0.944309 0.169502
vt 0.939330 0.137980
vt 0.964889 0.139301
vt 0.969868 0.170823
vn 0.000000 -1.000000 0.000000
vn -0.974900 0.000000 0.222500
vn 0.433400 -0.047000 -0.900000
vn 0.000000 0.000000 -1.000000
vn 0.973900 -0.047000 -0.222300
vn 0.974900 0.000000 0.222500
vn 0.781000 -0.047000 0.622800
vn -0.433900 0.000000 0.901000
vn 0.000000 -0.047000 0.998900
vn -0.781800 0.000000 -0.623500
vn -0.781000 -0.047000 0.622800
vn 0.781800 0.000000 -0.623500
vn -0.973900 -0.047000 -0.222300
vn 0.433900 0.000000 0.901000
vn -0.433400 -0.047000 -0.900000
vn 0.000000 1.000000 0.000000
vn -0.377000 -0.659700 -0.650100
vn 0.189100 -0.782500 -0.593200
vn 0.929300 0.155800 0.334800
vn -0.216700 0.780100 0.586900
vn 0.111800 -0.953900 -0.278600
vn 0.243200 -0.741900 -0.624900
usemtl None
s off
f 1/1/1 2/2/1 4/3/1
f 18/4/2 16/5/2 25/6/2 26/7/2
f 2/8/3 3/9/3 5/10/3 4/11/3
f 1/1/1 4/3/1 6/12/1
f 20/13/4 19/14/4 27/15/4 28/16/4
f 4/11/5 5/10/5 7/17/5 6/18/5
f 1/1/1 6/12/1 8/19/1
f 22/20/6 21/21/6 29/22/6 30/23/6
f 6/24/7 7/25/7 9/26/7 8/27/7
f 1/1/1 8/19/1 10/28/1
f 16/5/8 17/29/8 23/30/8 25/31/8
f 8/27/9 9/26/9 11/32/9 10/33/9
f 1/1/1 10/28/1 12/34/1
f 19/14/10 18/35/10 26/36/10 27/15/10
f 10/37/11 11/38/11 13/39/11 12/40/11
f 1/1/1 12/34/1 14/41/1
f 21/21/12 20/42/12 28/43/12 29/22/12
f 12/40/13 13/39/13 15/44/13 14/45/13
f 1/1/1 14/41/1 2/2/1
f 17/29/14 22/46/14 30/47/14 23/30/14
f 14/48/15 15/49/15 3/50/15 2/51/15
f 17/52/16 16/53/16 5/54/16 3/55/16
f 16/53/16 18/56/16 7/57/16 5/54/16
f 18/56/16 19/58/16 9/59/16 7/57/16
f 19/58/16 20/60/16 11/61/16 9/59/16
f 20/60/16 21/62/16 13/63/16 11/61/16
f 21/62/16 22/64/16 15/65/16 13/63/16
f 22/64/16 17/52/16 3/55/16 15/65/16
f 24/66/16 25/67/16 23/68/16
f 24/66/16 26/69/16 25/67/16
f 24/66/16 27/70/16 26/69/16
f 24/66/16 28/71/16 27/70/16
f 24/66/16 29/72/16 28/71/16
f 24/66/16 30/73/16 29/72/16
f 24/66/16 23/68/16 30/73/16
f 32/74/17 34/75/17 33/76/17 31/77/17
f 34/78/18 38/79/18 37/80/18 33/81/18
f 38/82/19 36/83/19 35/84/19 37/85/19
f 36/86/20 32/87/20 31/88/20 35/89/20
f 31/90/21 33/91/21 37/92/21 35/93/21
f 36/94/22 38/95/22 34/96/22 32/97/22
